<svg width="16" height="16" viewBox="0 0 16 16" fill="none" xmlns="http://www.w3.org/2000/svg">
<path d="M2.14663 2.85366C2.10014 2.80717 2.06327 2.75198 2.03811 2.69124C2.01295 2.6305 2 2.5654 2 2.49966C2 2.43391 2.01295 2.36881 2.03811 2.30807C2.06327 2.24733 2.10014 2.19214 2.14663 2.14565C2.19312 2.09917 2.24831 2.06229 2.30905 2.03713C2.36979 2.01197 2.43489 1.99902 2.50063 1.99902C2.56638 1.99902 2.63148 2.01197 2.69221 2.03713C2.75295 2.06229 2.80814 2.09917 2.85463 2.14565L8.00063 7.29265L13.1466 2.14565C13.1931 2.09917 13.2483 2.06229 13.309 2.03713C13.3698 2.01197 13.4349 1.99902 13.5006 1.99902C13.5664 1.99902 13.6315 2.01197 13.6922 2.03713C13.753 2.06229 13.8081 2.09917 13.8546 2.14565C13.9011 2.19214 13.938 2.24733 13.9632 2.30807C13.9883 2.36881 14.0013 2.43391 14.0013 2.49966C14.0013 2.5654 13.9883 2.6305 13.9632 2.69124C13.938 2.75198 13.9011 2.80717 13.8546 2.85366L8.70763 7.99965L13.8546 13.1457C13.9011 13.1921 13.938 13.2473 13.9632 13.3081C13.9883 13.3688 14.0013 13.4339 14.0013 13.4997C14.0013 13.5654 13.9883 13.6305 13.9632 13.6912C13.938 13.752 13.9011 13.8072 13.8546 13.8537C13.8081 13.9001 13.753 13.937 13.6922 13.9622C13.6315 13.9873 13.5664 14.0003 13.5006 14.0003C13.4349 14.0003 13.3698 13.9873 13.309 13.9622C13.2483 13.937 13.1931 13.9001 13.1466 13.8537L8.00063 8.70665L2.85463 13.8537C2.80814 13.9001 2.75295 13.937 2.69221 13.9622C2.63148 13.9873 2.56638 14.0003 2.50063 14.0003C2.43489 14.0003 2.36979 13.9873 2.30905 13.9622C2.24831 13.937 2.19312 13.9001 2.14663 13.8537C2.10014 13.8072 2.06327 13.752 2.03811 13.6912C2.01295 13.6305 2 13.5654 2 13.4997C2 13.4339 2.01295 13.3688 2.03811 13.3081C2.06327 13.2473 2.10014 13.1921 2.14663 13.1457L7.29363 7.99965L2.14663 2.85366Z" fill="white"/>
</svg>
