<svg width="16" height="14" viewBox="0 0 16 14" fill="none" xmlns="http://www.w3.org/2000/svg">
<path d="M13.5452 1.9072C12.5077 1.43107 11.4129 1.09125 10.2882 0.896202C10.278 0.894486 10.2675 0.895968 10.2582 0.900445C10.2489 0.904922 10.2412 0.912173 10.2362 0.921202C10.0952 1.1712 9.93917 1.4982 9.83017 1.7542C8.61778 1.57021 7.38456 1.57021 6.17217 1.7542C6.05058 1.46902 5.91303 1.19092 5.76017 0.921202C5.75504 0.912272 5.74733 0.905104 5.73804 0.900642C5.72876 0.89618 5.71835 0.894632 5.70817 0.896202C4.58317 1.0902 3.48817 1.4302 2.45117 1.9072C2.4423 1.91059 2.43487 1.91695 2.43017 1.9252C0.356169 5.0242 -0.212831 8.0472 0.0661689 11.0322C0.0671689 11.0462 0.0761689 11.0602 0.0871689 11.0692C1.29489 11.9638 2.64576 12.6469 4.08217 13.0892C4.09231 13.0924 4.10321 13.0923 4.11328 13.0889C4.12335 13.0855 4.13207 13.0789 4.13817 13.0702C4.44617 12.6502 4.72017 12.2072 4.95617 11.7412C4.96109 11.7316 4.96277 11.7207 4.96097 11.71C4.95917 11.6994 4.95398 11.6896 4.94617 11.6822C4.941 11.6773 4.93487 11.6736 4.92817 11.6712C4.49733 11.5056 4.08006 11.3067 3.68017 11.0762C3.669 11.0699 3.66069 11.0595 3.65697 11.0472C3.65325 11.0349 3.65439 11.0217 3.66017 11.0102C3.66357 11.0028 3.66872 10.9962 3.67517 10.9912C3.75917 10.9282 3.84317 10.8622 3.92317 10.7962C3.93024 10.7905 3.93872 10.7869 3.9477 10.7856C3.95668 10.7844 3.96583 10.7856 3.97417 10.7892C6.59317 11.9852 9.42817 11.9852 12.0152 10.7892C12.0238 10.7855 12.0333 10.7841 12.0426 10.7854C12.052 10.7866 12.0608 10.7903 12.0682 10.7962C12.1482 10.8622 12.2322 10.9282 12.3162 10.9912C12.323 10.9962 12.3284 11.0028 12.3321 11.0104C12.3357 11.018 12.3374 11.0264 12.337 11.0348C12.3366 11.0432 12.3341 11.0514 12.3298 11.0586C12.3255 11.0658 12.3194 11.0719 12.3122 11.0762C11.9132 11.3088 11.4954 11.5075 11.0632 11.6702C11.0563 11.6727 11.05 11.6767 11.0448 11.6819C11.0396 11.687 11.0357 11.6933 11.0332 11.7002C11.0309 11.7069 11.0299 11.714 11.0304 11.721C11.031 11.7281 11.0329 11.7349 11.0362 11.7412C11.2762 12.2062 11.5512 12.6502 11.8532 13.0702C11.8593 13.0789 11.868 13.0855 11.8781 13.0889C11.8881 13.0923 11.899 13.0924 11.9092 13.0892C13.348 12.6482 14.701 11.9651 15.9102 11.0692C15.9162 11.065 15.9213 11.0595 15.9249 11.0531C15.9285 11.0467 15.9307 11.0396 15.9312 11.0322C16.2652 7.5812 15.3722 4.5832 13.5652 1.9262C13.5633 1.92181 13.5606 1.91786 13.5572 1.91458C13.5537 1.91131 13.5496 1.9088 13.5452 1.9072ZM5.34717 9.2142C4.55817 9.2142 3.90917 8.4902 3.90917 7.6022C3.90917 6.7132 4.54617 5.9892 5.34717 5.9892C6.15417 5.9892 6.79717 6.7192 6.78517 7.6022C6.78517 8.4902 6.14817 9.2142 5.34717 9.2142ZM10.6632 9.2142C9.87517 9.2142 9.22517 8.4902 9.22517 7.6022C9.22517 6.7132 9.86217 5.9892 10.6632 5.9892C11.4702 5.9892 12.1142 6.7192 12.1012 7.6022C12.1012 8.4902 11.4702 9.2142 10.6632 9.2142Z" fill="white"/>
</svg>
